<svg width="320" height="240" viewBox="0 0 320 240" fill="none" xmlns="http://www.w3.org/2000/svg">
  <rect width="320" height="240" rx="28" fill="#07111E" />
  <rect x="32" y="28" width="256" height="184" rx="24" fill="#0B1D31" stroke="#163A56" />
  <path d="M160 72L210 92V130C210 158 188 181 160 188C132 181 110 158 110 130V92L160 72Z" fill="#102840" stroke="#79F8EA" stroke-width="3" />
  <path d="M142 129L154 141L179 116" stroke="#79F8EA" stroke-width="8" stroke-linecap="round" stroke-linejoin="round" />
  <path d="M76 88H102" stroke="#355C74" stroke-width="6" stroke-linecap="round" />
  <path d="M76 110H96" stroke="#355C74" stroke-width="6" stroke-linecap="round" />
  <path d="M218 88H244" stroke="#355C74" stroke-width="6" stroke-linecap="round" />
  <path d="M224 110H244" stroke="#355C74" stroke-width="6" stroke-linecap="round" />
  <rect x="76" y="146" width="52" height="28" rx="14" fill="#102840" stroke="#21415D" />
  <rect x="194" y="146" width="52" height="28" rx="14" fill="#102840" stroke="#21415D" />
  <path d="M92 160H112" stroke="#FF8D63" stroke-width="4" stroke-linecap="round" />
  <path d="M210 160H230" stroke="#79F8EA" stroke-width="4" stroke-linecap="round" />
</svg>
